HIERARCHY
ROOT Hips
{
  OFFSET -154.503 93.0286 -185.891
  CHANNELS 6 Xposition Yposition Zposition Zrotation Xrotation Yrotation
  JOINT ToSpine
  {
    OFFSET -2.69724 7.43032 -0.144315
    CHANNELS 3 Zrotation Xrotation Yrotation
    JOINT Spine
    {
      OFFSET -0.0310711 10.7595 1.96963
      CHANNELS 3 Zrotation Xrotation Yrotation
      JOINT Spine1
      {
        OFFSET 13.1342 3.43533 0.764692
        CHANNELS 3 Zrotation Xrotation Yrotation
        JOINT Neck
        {
          OFFSET 29.8703 7.82586 -0.130764
          CHANNELS 3 Zrotation Xrotation Yrotation
          JOINT Head
          {
            OFFSET 9.52751 0.295786 -0.907742
            CHANNELS 3 Zrotation Xrotation Yrotation
            End Site
            {
              OFFSET 16.4037 0.713936 2.7358
            }
          }
        }
        JOINT LeftShoulder
        {
          OFFSET 27.5574 4.95586 2.47156
          CHANNELS 3 Zrotation Xrotation Yrotation
          JOINT LeftArm
          {
            OFFSET 1.20734 -0.998971 20.1238
            CHANNELS 3 Zrotation Xrotation Yrotation
            JOINT LeftForeArm
            {
              OFFSET 26.8049 -0.0536703 -0.155908
              CHANNELS 3 Zrotation Xrotation Yrotation
              JOINT LeftHand
              {
                OFFSET 26.6817 0 0.320147
                CHANNELS 3 Zrotation Xrotation Yrotation
                End Site
                {
                  OFFSET 18.6119 0 0.382219
                }
              }
            }
          }
        }
        JOINT RightShoulder
        {
          OFFSET 27.5927 4.71444 -2.65209
          CHANNELS 3 Zrotation Xrotation Yrotation
          JOINT RightArm
          {
            OFFSET 2.83739 -1.17114 -18.7564
            CHANNELS 3 Zrotation Xrotation Yrotation
            JOINT RightForeArm
            {
              OFFSET 28.839 -0.0548439 1.22491
              CHANNELS 3 Zrotation Xrotation Yrotation
              JOINT RightHand
              {
                OFFSET 26.5114 0 -0.101894
                CHANNELS 3 Zrotation Xrotation Yrotation
                End Site
                {
                  OFFSET 18.2168 0 0
                }
              }
            }
          }
        }
      }
    }
  }
  JOINT LeftUpLeg
  {
    OFFSET -4.76168 -1.9167 -10.2353
    CHANNELS 3 Zrotation Xrotation Yrotation
    JOINT LeftLeg
    {
      OFFSET 2.55951 -42.0585 -8.02213
      CHANNELS 3 Zrotation Xrotation Yrotation
      JOINT LeftFoot
      {
        OFFSET 3.16357 -42.5282 -3.95426
        CHANNELS 3 Zrotation Xrotation Yrotation
        JOINT LeftToeBase
        {
          OFFSET 0.346054 -6.02161 12.8035
          CHANNELS 3 Zrotation Xrotation Yrotation
          End Site
          {
            OFFSET 0.134235 -1.35082 5.13018
          }
        }
      }
    }
  }
  JOINT RightUpLeg
  {
    OFFSET -4.94151 -1.41743 10.6446
    CHANNELS 3 Zrotation Xrotation Yrotation
    JOINT RightLeg
    {
      OFFSET -2.56294 -42.0364 -7.94377
      CHANNELS 3 Zrotation Xrotation Yrotation
      JOINT RightFoot
      {
        OFFSET -3.0952 -42.555 -4.02241
        CHANNELS 3 Zrotation Xrotation Yrotation
        JOINT RightToeBase
        {
          OFFSET -0.0828122 -6.13587 12.8035
          CHANNELS 3 Zrotation Xrotation Yrotation
          End Site
          {
            OFFSET -0.131328 -1.35082 5.13018
          }
        }
      }
    }
  }
}
MOTION
Frames:	15
Frame Time:	0.0333333
60.9933 91.6961 -1.15642 -52.1286 37.5423 152.556 -70.1915 0 88.8779 95.1709 74.8587 -6.73511 -2.59457 25.2585 1.03365 -160.73 23.0596 178.87 -155.972 62.6317 -171.144 0.687431 -11.8839 -31.6697 -77.8478 54.1219 -69.2309 11.995 22.1756 -29.6932 0.420957 0.000575282 0.35866 -2.03285 6.39234 46.186 -63.2239 -20.2699 102.165 18.3244 -1.21444 86.1301 0.58676 0.000331186 0.064665 -32.4778 0.60746 92.1538 -13.0657 72.4925 -2.62905 -1.72713 -9.61237 -0.772793 6.49598 -15.2131 18.3931 -58.1935 2.72601 83.8736 -1.30368 29.2548 11.6094 -12.1813 -28.5198 0.889682 2.22552 -18.5844 -31.399 
61.8832 92.0818 0.00148431 -52.4113 35.9755 153.25 -70.1915 0 88.8779 91.4026 74.6406 -3.67439 -2.7633 24.7468 1.86851 -162.289 23.3468 178.799 -156.391 62.9088 -172.528 0.618931 -12.1745 -32.064 -79.5782 51.9114 -69.562 11.0622 18.1418 -31.7092 0.420957 0.000575282 0.35866 -1.96248 6.22824 45.936 -64.5224 -21.5356 100.483 18.7367 -1.25831 86.1044 0.58676 0.000331186 0.064665 -35.8824 0.358467 92.7283 -10.2134 68.8656 -5.0709 -1.70307 -9.93368 -0.804562 7.87793 -17.1484 18.5062 -56.5792 2.51601 83.4237 -1.14916 29.7863 11.0002 -11.0261 -28.6449 1.03599 2.40655 -17.4287 -30.8708 
62.2968 92.3336 1.02783 -53.5655 34.714 154.713 -70.1915 0 88.8779 90.9406 74.1979 -2.99619 -2.62627 24.3787 1.67016 -161.953 23.939 178.935 -158.225 63.669 -170.344 0.608075 -12.218 -32.1451 -80.7548 49.9497 -70.8035 10.3546 15.3595 -34.2117 0.420957 0.000575282 0.35866 -1.9705 6.22938 46.0528 -65.9962 -21.7916 98.6172 20.413 -1.31301 86.28 0.58676 0.000331186 0.064665 -39.7987 0.46115 93.8008 -7.62915 64.9872 -4.16979 -1.08366 -10.8871 -0.916531 7.69015 -16.7452 13.2384 -56.5773 2.151 82.3858 -0.746006 29.4901 11.5302 -11.3417 -27.5068 1.0215 2.30077 -18.1312 -32.615 
62.3833 92.6301 1.78153 -53.4971 33.0617 155.229 -70.1915 0 88.8779 84.5374 73.9871 3.49435 -2.1391 24.2559 1.46511 -161.371 24.5186 178.161 -157.421 64.1125 -171.885 0.569771 -12.3797 -32.3166 -82.1181 48.01 -71.7357 10.6979 14.127 -37.3542 0.420957 0.000575282 0.35866 -1.89819 6.10491 45.5621 -67.6219 -23.2742 96.8762 22.0024 -1.70976 85.5827 0.58676 0.000331186 0.064665 -42.6229 0.0555843 94.6978 -6.29251 60.0552 -7.86507 -0.793645 -8.88222 -0.750861 10.1429 -20.3983 15.1219 -55.9308 1.80597 82.011 -0.732925 28.7414 11.0476 -10.1945 -27.0683 1.16327 2.39661 -17.4969 -30.9515 
62.2203 92.7741 2.33183 -53.8116 31.464 156.062 -70.1915 0 88.8779 78.59 73.7375 9.0184 -1.38373 24.0895 1.86381 -160.897 25.355 177.524 -156.995 64.8697 -172.819 0.517478 -12.583 -32.6824 -83.7851 46.31 -72.8653 11.0114 13.0048 -40.4619 0.420957 0.000575282 0.35866 -1.77735 5.81433 45.1212 -69.1889 -24.4862 95.1232 22.6415 -2.01404 84.9921 0.58676 0.000331186 0.064665 -46.0139 -0.29625 95.3646 -5.26106 53.4774 -13.4805 -3.46234 -8.20974 -0.539449 12.089 -23.2738 14.3514 -55.9555 1.23862 81.1699 -0.525133 28.0149 11.1678 -8.81275 -27.3076 1.32203 2.53624 -16.2636 -28.2596 
61.6706 92.8288 2.98534 -54.0372 29.9995 156.935 -70.1915 0 88.8779 75.0578 73.1988 13.3867 -0.543071 24.0158 0.992112 -160.886 25.9219 177.327 -157.093 65.4533 -172.636 0.501959 -12.6226 -32.9809 -84.1969 45.169 -75.0801 10.5285 11.434 -42.7803 0.420957 0.000575282 0.35866 -1.72139 5.74508 44.5604 -70.2441 -25.9125 93.448 22.3878 -2.25197 84.3628 0.58676 0.000331186 0.064665 -48.8086 -0.384057 96.4027 -4.44454 48.2589 -14.9303 -3.01332 -10.8385 -0.846824 11.1724 -22.0781 12.4595 -56.5352 0.599548 80.6262 -0.0153054 26.6823 11.5202 -9.00584 -26.4558 1.29994 2.15433 -19.2359 -27.378 
61.0515 92.9861 3.44974 -54.2671 29.2713 157.417 -70.1915 0 88.8779 74.3574 73.165 14.3561 -0.48026 24.1047 0.548162 -161.376 26.2498 177.248 -156.566 65.7211 -173.82 0.41086 -12.9664 -33.5299 -86.0562 43.813 -75.0653 12.4958 11.8035 -46.8719 0.420957 0.000575282 0.35866 -1.80827 6.09618 44.1972 -71.1685 -27.0432 91.8925 21.768 -2.49068 83.6058 0.58676 0.000331186 0.064665 -51.1036 -0.00302457 97.9509 -4.29001 44.5966 -18.9759 -4.04451 -13.7832 -1.15821 9.79531 -19.9165 14.3807 -57.6143 0.262563 80.6322 -0.082388 25.3382 13.6514 -9.4562 -25.5172 1.25556 2.09172 -19.7057 -27.7169 
60.3494 92.796 4.01314 -54.3569 28.4142 157.591 -70.1915 0 88.8779 74.2181 73.0441 14.0067 -1.1402 23.9376 0.88899 -160.622 26.5649 177.112 -156.694 66.0783 -172.722 0.258348 -13.5337 -34.2503 -87.1984 42.6964 -75.3666 12.7974 10.7407 -50.2015 0.420957 0.000575282 0.35866 -1.92235 6.45217 44.2536 -71.5996 -27.9645 90.5555 22.7517 -3.25434 82.1141 0.58676 0.000331186 0.064665 -51.9877 -0.0418535 99.8935 -4.09366 42.9925 -19.0931 -2.68986 -13.6609 -1.15516 10.2444 -20.72 11.3638 -57.4702 -0.54856 80.527 -0.60887 26.1893 15.0054 -8.37832 -26.176 1.36666 2.12123 -19.7684 -24.9125 
59.4643 92.485 4.44422 -55.245 27.2732 159.134 -70.1915 0 88.8779 76.3515 72.7417 11.8437 -1.19142 23.3256 1.40402 -160.667 26.7958 176.576 -154.837 66.1498 -174.471 0.0354318 -14.2869 -35.4123 -88.3927 41.0632 -75.7754 16.0294 11.7963 -54.0792 0.420957 0.000575282 0.35866 -1.79468 6.02684 44.3227 -71.8811 -28.0766 90.1997 22.9205 -4.19951 80.0081 0.58676 0.000331186 0.064665 -52.0429 -0.615587 98.2023 -4.21113 43.9763 -19.0575 -2.21532 -14.7903 -1.2743 9.89083 -20.118 12.6931 -57.9211 -0.321834 80.7984 -1.09637 27.4223 15.1878 -8.39601 -25.7596 1.36259 1.88331 -22.6142 -23.6075 
58.2566 92.2287 4.82278 -55.5943 26.6078 159.815 -70.1915 0 88.8779 76.0572 72.3577 12.5427 -0.306894 23.0903 0.882933 -160.528 26.9715 175.807 -153.704 66.2353 -175.079 -0.109661 -14.7828 -35.9215 -88.1523 40.5362 -77.2209 16.3626 10.4603 -57.768 0.420957 0.000575282 0.35866 -1.80464 6.14234 43.9169 -71.9113 -29.193 89.7148 21.5649 -4.97645 77.4697 0.58676 0.000331186 0.064665 -52.6739 -1.51774 97.1481 -4.1169 43.7169 -18.3173 -1.87646 -14.3355 -1.22864 10.6596 -21.339 11.8112 -57.369 -0.514857 82.3834 -1.47646 30.3733 15.5093 -7.2781 -25.0546 1.46546 1.80475 -25.2723 -21.1 
57.2423 92.0982 5.09562 -55.2274 27.0345 160.069 -70.1915 0 88.8779 81.3978 72.5286 7.43928 -1.71392 22.8753 1.12541 -160.412 26.6917 175.083 -153.252 65.9317 -174.855 -0.090709 -14.7241 -35.8258 -88.5345 40.776 -77.7009 19.8336 10.8067 -61.9898 0.420957 0.000575282 0.35866 -1.82364 6.2473 43.713 -72.4786 -30.6717 88.4334 24.3256 -6.72308 75.3334 0.58676 0.000331186 0.064665 -53.5395 -1.46071 96.6675 -4.21925 43.1789 -20.2901 -1.35666 -16.7991 -1.46321 8.4508 -17.9117 13.28 -54.8886 0.826704 89.6997 1.38283 35.7919 9.74718 -9.55536 -20.887 1.27233 1.06424 -31.1899 -23.7599 
56.1037 92.1984 5.16433 -54.3591 28.2894 159.018 -70.1915 0 88.8779 88.036 72.8178 -0.606508 -4.22821 22.5447 2.47996 -161.033 25.822 173.987 -151.763 64.8333 -176.682 0.0222666 -14.3929 -35.0827 -89.2946 42.0922 -76.7836 22.3974 9.72718 -67.1318 0.420957 0.000575282 0.35866 -1.68997 5.74741 44.027 -71.2626 -31.2491 87.7725 24.711 -8.18624 72.6697 0.58676 0.000331186 0.064665 -56.1275 -2.67436 96.2458 -3.90441 39.1408 -21.9053 -2.66995 -16.4931 -1.45696 8.90666 -18.5932 15.1396 -49.7569 0.257718 91.3578 3.26427 44.9229 8.90529 -9.9662 -14.5505 1.30854 -0.0344816 -36.4117 -26.9867 
54.5684 92.3781 4.98682 -53.4873 29.1477 159.001 -70.1915 0 88.8779 93.9468 71.9432 -6.34694 -5.63044 21.3765 3.29553 -162.241 24.6426 174.796 -152.745 63.7506 -175.821 0.00607981 -14.5013 -34.8292 -91.1755 42.8766 -75.0166 22.4224 7.97222 -70.8294 0.420957 0.000575282 0.35866 -1.67947 5.70803 44.0543 -69.9032 -32.1885 87.1875 24.9947 -10.0875 69.284 0.58676 0.000331186 0.064665 -58.2557 -2.85971 96.6926 -3.1303 35.4856 -18.9535 -2.38106 -14.5618 -1.25092 9.78769 -19.9978 11.6055 -43.2478 0.270147 90.4577 4.58871 55.506 5.91428 -9.85209 -14.996 1.30466 0.812034 -32.8128 -24.4157 
52.918 92.9011 4.2697 -52.3893 29.0546 158.783 -70.1915 0 88.8779 92.445 71.0031 -6.39887 -4.73136 19.6973 4.86 -164.329 23.1746 175.142 -153.423 62.3214 -175.548 -0.0617167 -14.8946 -34.2085 -92.0647 43.0408 -74.8133 22.3331 6.98419 -72.9101 0.420957 0.000575282 0.35866 -1.67952 5.55013 44.8882 -69.3406 -32.438 86.1952 24.7095 -12.3723 64.9229 0.58676 0.000331186 0.064665 -59.9295 -3.02898 97.6044 -1.91066 31.8295 -21.3901 -3.57375 -13.2094 -1.09628 10.0876 -20.1907 18.4702 -36.4655 0.328887 88.9949 6.53217 63.6337 2.86582 -6.33242 -15.6576 1.32748 1.06574 -28.2499 -26.7397 
51.3276 93.1627 3.36384 -51.3113 28.3477 159.203 -70.1915 0 88.8779 91.983 69.7929 -6.83615 -3.76229 17.9668 5.94091 -164.967 21.989 174.399 -153.152 61.0741 -175.293 -0.248341 -15.7514 -33.8928 -93.2846 41.8408 -75.18 23.4403 6.44077 -74.8804 0.420957 0.000575282 0.35866 -1.76889 5.57883 46.2473 -68.6316 -32.1516 84.4699 21.1252 -13.1714 59.3933 0.58676 0.000331186 0.064665 -60.6657 -2.504 97.5703 -1.00293 29.7886 -22.0512 -4.97617 -12.3308 -0.967708 11.4632 -21.9224 20.4338 -29.2014 0.362178 86.175 9.1268 69.9308 -1.13239 -7.50428 -13.0926 1.28477 1.01506 -29.5293 -25.7174 
